<svg xmlns="http://www.w3.org/2000/svg" width="10.981" height="10.981" viewBox="0 0 10.981 10.981">
  <path id="Icon_awesome-question-circle" data-name="Icon awesome-question-circle" d="M11.544,6.053A5.491,5.491,0,1,1,6.053.563,5.49,5.49,0,0,1,11.544,6.053ZM6.2,2.378A2.868,2.868,0,0,0,3.62,3.79a.266.266,0,0,0,.06.36l.768.583a.266.266,0,0,0,.369-.047c.4-.5.667-.793,1.269-.793.452,0,1.012.291,1.012.73,0,.332-.274.5-.72.752-.521.292-1.21.655-1.21,1.564v.089a.266.266,0,0,0,.266.266h1.24a.266.266,0,0,0,.266-.266V7c0-.63,1.842-.656,1.842-2.362A2.526,2.526,0,0,0,6.2,2.378ZM6.053,7.869A1.018,1.018,0,1,0,7.072,8.887,1.02,1.02,0,0,0,6.053,7.869Z" transform="translate(-0.563 -0.563)" fill="#56dd29"/>
</svg>
