<svg xmlns="http://www.w3.org/2000/svg" xmlns:xlink="http://www.w3.org/1999/xlink" width="105.297" height="16.226" viewBox="0 0 105.297 16.226"><defs><clipPath id="a"><rect width="105.297" height="16.226" fill="none"/></clipPath></defs><g transform="translate(0 0)" clip-path="url(#a)"><path d="M76.259,6.332a4.5,4.5,0,0,0-.274,3.389c.1.342.342.41.513.342.275-.1.308-.342.308-.788,0-.547-.068-1.506.582-1.711a.3.3,0,0,1,.171-.035,5.827,5.827,0,0,1-1.3-1.2m4.313-2.6a4.377,4.377,0,0,0-2.67.821.438.438,0,0,0-.24.376.406.406,0,0,0,.411.376c.445,0,1.061-.41,1.711-.41a.7.7,0,0,1,.754.479,5.318,5.318,0,0,1,.753-1.643h-.719M82.8,14.513c0,1.3-1.472,1.4-2.293,1.4A6.1,6.1,0,0,1,77.97,15.4c-.856-.411-1.129-.822-1.129-2.19,0-.549.033-.925.068-1.336-.479.172-.993.378-1.472.514-1.267.411-1.814-.958-2.053-1.711a6.522,6.522,0,0,1-.343-1.986c0-1.368.446-1.814,1.472-2.156.514-.172,1.2-.343,1.575-.446-.308-.376-.651-.788-.958-1.232a1.061,1.061,0,0,1-.275-.719c0-.753.788-1.368,1.3-1.746A5.833,5.833,0,0,1,79.066,1.3a1.7,1.7,0,0,1,1.438.856,15.836,15.836,0,0,1,.924,1.369c.275-.411.582-.856.89-1.267a1.211,1.211,0,0,1,.993-.479,3.184,3.184,0,0,1,1.711.685A6.227,6.227,0,0,1,86.7,4.313a1.922,1.922,0,0,1,.342,1.026A1.918,1.918,0,0,1,86.529,6.5c-.343.445-.754.993-1.028,1.267a14.823,14.823,0,0,1,1.507.445,1.256,1.256,0,0,1,.89,1.3,5.948,5.948,0,0,1-1.507,3.457,1.638,1.638,0,0,1-1.232.685,3.118,3.118,0,0,1-.89-.171c-.514-.171-1.164-.411-1.54-.549.035.514.068.788.068,1.575m-.479-5.477a2.261,2.261,0,0,1,.89-1.369,2.752,2.752,0,0,1-1.643-.685c-.719-.514-.993-.924-1.061-1.267-.068.411-.514.856-1.164,1.335a2.138,2.138,0,0,1-1.54.582,2.586,2.586,0,0,1,.924,1.507,3.558,3.558,0,0,1,.206,1.026,1.457,1.457,0,0,1-.1.582,2.73,2.73,0,0,1,1.712-.411,2.271,2.271,0,0,1,1.608.411,1.147,1.147,0,0,1-.1-.514,11.513,11.513,0,0,1,.274-1.2m.274,2.533a8.979,8.979,0,0,1,.137,1.163,4.825,4.825,0,0,0,1.678-1.438,3.544,3.544,0,0,0,.65-1.4.368.368,0,0,0-.376-.342c-.206,0-.411.171-.617.479-.308.445-.821,1.265-1.472,1.026l-.2-.1a4.435,4.435,0,0,1,.2.617m.582-6.881a.379.379,0,0,0-.376.376,1.539,1.539,0,0,0,.308.65,2.416,2.416,0,0,1,.685,1.3.64.64,0,0,1-.274.547.744.744,0,0,1,.274-.035,7.808,7.808,0,0,1,1.506.24,4.419,4.419,0,0,0-1.779-2.944.554.554,0,0,0-.343-.136m-5,6.641c-.274.171-.617.308-1.026.514a4.463,4.463,0,0,0,3.183,1.335c.376,0,.513-.171.513-.376,0-.274-.274-.411-.684-.547-.549-.172-1.439-.378-1.439-1.061a.427.427,0,0,1,.035-.206c-.206.136-.411.239-.582.342" transform="translate(17.4 0.309)" fill="#c12a21"/><path d="M23.923,14.11a3.458,3.458,0,0,1-2.4-1.026v.856H19.712V3.087l1.814-.958V5.792a3.7,3.7,0,0,1,2.5-1.061c1.95,0,3.663,1.4,3.663,4.827,0,3.081-1.883,4.553-3.765,4.553m-.24-7.736a3.1,3.1,0,0,0-2.19,1.164v3.8a3.2,3.2,0,0,0,2.259,1.2c1.267,0,2.157-.958,2.157-2.875,0-2.293-.924-3.286-2.225-3.286" transform="translate(4.696 0.507)" fill="#fff"/><path d="M39.833,13.445v-5.1c0-1.814-.685-2.465-1.849-2.465-1.2,0-1.917.856-1.917,2.294v5.271H34.254V4.409h1.814v.856A2.969,2.969,0,0,1,38.431,4.2c2.088,0,3.217,1.164,3.217,4.039V13.41H39.833Z" transform="translate(8.16 1.001)" fill="#fff"/><path d="M32.568,13.439v-.89a3.75,3.75,0,0,1-2.533,1.1A2.974,2.974,0,0,1,26.816,10.6c0-2.02,1.643-2.91,3.663-2.91a5.762,5.762,0,0,1,2.089.343V7.345c0-.993-.719-1.54-1.849-1.54a4.477,4.477,0,0,0-2.361.582l-.685-1.335a5.543,5.543,0,0,1,3.114-.822c2.02,0,3.561.993,3.561,3.013V13.4H32.568Zm0-3.868a4.742,4.742,0,0,0-2.122-.411c-1.129,0-1.917.514-1.917,1.336,0,.889.65,1.506,1.814,1.506a2.938,2.938,0,0,0,2.26-1.164V9.57Z" transform="translate(6.388 1.007)" fill="#fff"/><path d="M46.861,13.439v-.89a3.75,3.75,0,0,1-2.533,1.1A2.974,2.974,0,0,1,41.109,10.6c0-2.02,1.643-2.91,3.664-2.91a5.76,5.76,0,0,1,2.088.343V7.345c0-.993-.719-1.54-1.849-1.54a4.477,4.477,0,0,0-2.361.582l-.685-1.335A5.546,5.546,0,0,1,45.08,4.23c2.02,0,3.561.993,3.561,3.013V13.4H46.861Zm0-3.868a4.742,4.742,0,0,0-2.122-.411c-1.129,0-1.917.514-1.917,1.336,0,.889.65,1.506,1.814,1.506a2.938,2.938,0,0,0,2.26-1.164V9.57Z" transform="translate(9.793 1.007)" fill="#fff"/><path d="M59.131,13.445v-5.1c0-1.814-.582-2.465-1.746-2.465-1.2,0-1.711.856-1.711,2.294v5.271H53.858v-5.1c0-1.814-.547-2.465-1.711-2.465-1.2,0-1.814.856-1.814,2.294v5.271H48.519V4.409h1.814v.856A2.693,2.693,0,0,1,52.558,4.2a2.556,2.556,0,0,1,2.464,1.335A3.143,3.143,0,0,1,57.8,4.2c2.088,0,3.149.958,3.149,3.971V13.41H59.131Z" transform="translate(11.558 1.001)" fill="#fff"/><path d="M67.533,9.536H61.3a2.41,2.41,0,0,0,2.4,2.431,3.8,3.8,0,0,0,2.157-.719l.993,1.164a4.568,4.568,0,0,1-3.253,1.2c-2.122,0-4.074-1.712-4.074-4.69,0-3.046,1.781-4.689,4.108-4.689,2.567,0,3.936,2.088,3.936,4.518a2.772,2.772,0,0,1-.033.788m-4.006-3.7a2.2,2.2,0,0,0-2.19,2.26h4.45a2.175,2.175,0,0,0-2.26-2.26" transform="translate(14.179 1.007)" fill="#fff"/><path d="M71.7,13.406l-.856-1.575c-.376-.65-.788-1.471-.958-1.814-.172.343-.651,1.232-.993,1.849L68,13.406H66.019L68.791,8.75,66.225,4.369h2.053L69,5.634c.376.651.788,1.472.958,1.815.206-.343.617-1.2.958-1.849L71.6,4.369h2.054L71.016,8.716l2.772,4.654H71.7Z" transform="translate(15.727 1.041)" fill="#fff"/><path d="M21.1,3.971A9.074,9.074,0,0,0,13.676,0,9.147,9.147,0,0,0,6.248,3.936H8.37a7.316,7.316,0,0,1,5.306-2.293,7.516,7.516,0,0,1,5.306,2.293H21.1Z" transform="translate(1.488 0)" fill="#c12a21"/><path d="M6.881,10.768l-.035.035a3.13,3.13,0,0,1-2.19,1.026,2.762,2.762,0,0,1-2.807-2.91,2.761,2.761,0,0,1,2.807-2.91,3,3,0,0,1,2.19,1.028l.035.033L7.942,5.8,7.907,5.77A4.029,4.029,0,0,0,4.724,4.23a4.988,4.988,0,0,0-3.32,1.2A4.562,4.562,0,0,0,0,8.884a4.562,4.562,0,0,0,1.4,3.458,4.819,4.819,0,0,0,3.32,1.2A3.982,3.982,0,0,0,7.907,12l.035-.033Z" transform="translate(0 1.007)" fill="#fff"/><rect width="1.849" height="9.003" transform="translate(8.968 5.409)" fill="#fff"/><path d="M15.677,11.96a2.572,2.572,0,0,1-1.369.445c-.615,0-.856-.307-.856-1.026V6.586h1.883V4.873H13.452V2.1l-1.814.958V4.908H10.063V6.619h1.575v5.1a2.126,2.126,0,0,0,2.054,2.363,2.893,2.893,0,0,0,1.643-.411h.033l.446-1.746Z" transform="translate(2.397 0.5)" fill="#fff"/><rect width="1.849" height="9.003" transform="translate(19.581 5.409)" fill="#fff"/></g></svg>