<svg xmlns="http://www.w3.org/2000/svg" width="309.1" height="80.5" viewBox="0 0 309.1 80.5">
  <g id="Grupo_1729" data-name="Grupo 1729" transform="translate(21631.151 -1519.6)">
    <path id="Trazado_118265" data-name="Trazado 118265" d="M56,20.5,38.1,38.6l5.9,8,9,14.5L46.1,72.8A12.839,12.839,0,0,0,44.75,70q-1.25-2.2-2.8-4.85t-3.05-5.1q-1.5-2.45-2.1-3.35a21.933,21.933,0,0,0-1.15-1.9q-.85-1.3-1.95-3.05T31.3,48q-1.3-2-2.6-3.9L22,75.3l-8.7-4.7,8.1-43.7L22.8,19l-3.1.2-7.1-8.1L29.2,7.7l26-6.6,12.5,9.4ZM32.2,32.1q2.3-2.5,5.4-5.8T43.5,20q3.3-3.5,6.6-7.2L34.6,16.1,31,32.2ZM74,53.6l13.1-5.5,11.3,4.5L70.3,66.4l-10.7,6-14-6,14.7-7.1,3.4-18.7.4-2.1-8.3-4.7,10.3-4.9,2.7-13.7-1.3.5L58,11,88-1,98.8,2.7l-15,6.8L79.9,11,77.7,23.4l.3-.1,8-3.5,4.8,2,5,2L82.5,30.2,75.9,34l-.7,6.4Zm67-11.8-7,3.4-8.8,14.3-5.7,12.1h-.6l-11.4,5.5-6.2-5.7-7.8-8.5L81.6,50.3l8.2-4,5.4-13.2L107,6.8l9.5-3.5L126-1.4l.7,6,1.8,11.7-4,2.5-7.3,5-1.5-8.5-3.5,6.3L103,40.3,98.3,52l6.6,6.8,7.4,6.8.5-1.8,7.7-12.5-11.1,5-8.7-4.2,9.2-5.5,18.8-10.3ZM151.4,6.4l-7.9,37.7-6.1,30.4-9.1-3L138.5,3.4Zm16.9,43.8,3.7,8,4.5,2.5-7.3,7.7-5.4.6-18.9,5.5-5.2-4-2.8-1.8,10.4-4.1L160.5,60l-4.8-9.4L143.5,28l7.1-7.7,1,.7,5.2-3.5,10.6-8.3.5.9,1.5-8L180.1,7l-4.4,17.7-1.6,5.1-8.4.7.7-8.3-8.7,6ZM210.4.8,192.1,9.9l4.8,1L189.1,74l-10.9-2.5,7-57.9-13.1,5.8-9.5-6L186.8,2.7l15-6.1Zm32.4,19.7L224.9,38.6l5.9,8,9,14.5-6.9,11.7a12.839,12.839,0,0,0-1.35-2.8q-1.25-2.2-2.8-4.85t-3.05-5.1q-1.5-2.45-2.1-3.35a21.933,21.933,0,0,0-1.15-1.9q-.85-1.3-1.95-3.05T218.1,48q-1.3-2-2.6-3.9l-6.7,31.2-8.7-4.7,8.1-43.7,1.4-7.9-3.1.2-7.1-8.1L216,7.7l26-6.6,12.5,9.4ZM219,32.1q2.3-2.5,5.4-5.8t5.9-6.3q3.3-3.5,6.6-7.2l-15.5,3.3-3.6,16.1Zm66.7-18.4-.1,5.1-3.7,6.8.7.8-1.4.5L272.1,44,259.7,68.8l-1.4-.2.7,2.2-7,5.8-2.9-5.5-9.3-13-1.8.1-4.7-10.1L245,27l9.3-16.4.7-1.5,9.5-5.4.8,1.4,8.8,11.2.9,1.1,3.2-5.8ZM252.5,59.4l14.1-26.9,3.7-6.6-8.4-8.5L245.2,47.2l-.3.5,1.1,1.5Zm49.4-9.2,3.7,8,4.5,2.5-7.3,7.7-5.4.6-18.9,5.5-5.2-4-2.8-1.8,10.4-4.1L294.1,60l-4.8-9.4L277.1,28l7.1-7.7,1,.7,5.2-3.5L301,9.2l.5.9,1.5-8L313.7,7l-4.4,17.7-1.6,5.1-8.4.7.7-8.3-8.7,6Z" transform="translate(-21643.75 1523)"/>
    <path id="Trazado_118266" data-name="Trazado 118266" d="M56,20.5,38.1,38.6l5.9,8,9,14.5L46.1,72.8A12.839,12.839,0,0,0,44.75,70q-1.25-2.2-2.8-4.85t-3.05-5.1q-1.5-2.45-2.1-3.35a21.933,21.933,0,0,0-1.15-1.9q-.85-1.3-1.95-3.05T31.3,48q-1.3-2-2.6-3.9L22,75.3l-8.7-4.7,8.1-43.7L22.8,19l-3.1.2-7.1-8.1L29.2,7.7l26-6.6,12.5,9.4ZM32.2,32.1q2.3-2.5,5.4-5.8T43.5,20q3.3-3.5,6.6-7.2L34.6,16.1,31,32.2ZM74,53.6l13.1-5.5,11.3,4.5L70.3,66.4l-10.7,6-14-6,14.7-7.1,3.4-18.7.4-2.1-8.3-4.7,10.3-4.9,2.7-13.7-1.3.5L58,11,88-1,98.8,2.7l-15,6.8L79.9,11,77.7,23.4l.3-.1,8-3.5,4.8,2,5,2L82.5,30.2,75.9,34l-.7,6.4Zm67-11.8-7,3.4-8.8,14.3-5.7,12.1h-.6l-11.4,5.5-6.2-5.7-7.8-8.5L81.6,50.3l8.2-4,5.4-13.2L107,6.8l9.5-3.5L126-1.4l.7,6,1.8,11.7-4,2.5-7.3,5-1.5-8.5-3.5,6.3L103,40.3,98.3,52l6.6,6.8,7.4,6.8.5-1.8,7.7-12.5-11.1,5-8.7-4.2,9.2-5.5,18.8-10.3ZM151.4,6.4l-7.9,37.7-6.1,30.4-9.1-3L138.5,3.4Zm16.9,43.8,3.7,8,4.5,2.5-7.3,7.7-5.4.6-18.9,5.5-5.2-4-2.8-1.8,10.4-4.1L160.5,60l-4.8-9.4L143.5,28l7.1-7.7,1,.7,5.2-3.5,10.6-8.3.5.9,1.5-8L180.1,7l-4.4,17.7-1.6,5.1-8.4.7.7-8.3-8.7,6ZM210.4.8,192.1,9.9l4.8,1L189.1,74l-10.9-2.5,7-57.9-13.1,5.8-9.5-6L186.8,2.7l15-6.1Zm32.4,19.7L224.9,38.6l5.9,8,9,14.5-6.9,11.7a12.839,12.839,0,0,0-1.35-2.8q-1.25-2.2-2.8-4.85t-3.05-5.1q-1.5-2.45-2.1-3.35a21.933,21.933,0,0,0-1.15-1.9q-.85-1.3-1.95-3.05T218.1,48q-1.3-2-2.6-3.9l-6.7,31.2-8.7-4.7,8.1-43.7,1.4-7.9-3.1.2-7.1-8.1L216,7.7l26-6.6,12.5,9.4ZM219,32.1q2.3-2.5,5.4-5.8t5.9-6.3q3.3-3.5,6.6-7.2l-15.5,3.3-3.6,16.1Zm66.7-18.4-.1,5.1-3.7,6.8.7.8-1.4.5L272.1,44,259.7,68.8l-1.4-.2.7,2.2-7,5.8-2.9-5.5-9.3-13-1.8.1-4.7-10.1L245,27l9.3-16.4.7-1.5,9.5-5.4.8,1.4,8.8,11.2.9,1.1,3.2-5.8ZM252.5,59.4l14.1-26.9,3.7-6.6-8.4-8.5L245.2,47.2l-.3.5,1.1,1.5Zm49.4-9.2,3.7,8,4.5,2.5-7.3,7.7-5.4.6-18.9,5.5-5.2-4-2.8-1.8,10.4-4.1L294.1,60l-4.8-9.4L277.1,28l7.1-7.7,1,.7,5.2-3.5L301,9.2l.5.9,1.5-8L313.7,7l-4.4,17.7-1.6,5.1-8.4.7.7-8.3-8.7,6Z" transform="translate(-21635.75 1523)" fill="#942f97"/>
  </g>
</svg>
